<svg width="1440" height="1096" viewBox="0 0 1440 1096" fill="none" xmlns="http://www.w3.org/2000/svg">
<g opacity="0.2">
<path d="M477.5 173.333V86.6667C477.496 82.8672 476.493 79.1355 474.592 75.8459C472.69 72.5564 469.957 69.8248 466.667 67.925L390.833 24.5917C387.54 22.69 383.803 21.6889 380 21.6889C376.197 21.6889 372.46 22.69 369.167 24.5917L293.333 67.925C290.043 69.8248 287.31 72.5564 285.408 75.8459C283.507 79.1355 282.504 82.8672 282.5 86.6667V173.333C282.504 177.133 283.507 180.865 285.408 184.154C287.31 187.444 290.043 190.175 293.333 192.075L369.167 235.408C372.46 237.31 376.197 238.311 380 238.311C383.803 238.311 387.54 237.31 390.833 235.408L466.667 192.075C469.957 190.175 472.69 187.444 474.592 184.154C476.493 180.865 477.496 177.133 477.5 173.333Z" stroke="#B3B3B3" stroke-width="4" stroke-linecap="round" stroke-linejoin="round"/>
<path d="M672.5 173.333V86.6667C672.496 82.8672 671.493 79.1355 669.592 75.8459C667.69 72.5564 664.957 69.8248 661.667 67.925L585.833 24.5917C582.54 22.69 578.803 21.6889 575 21.6889C571.197 21.6889 567.46 22.69 564.167 24.5917L488.333 67.925C485.043 69.8248 482.31 72.5564 480.408 75.8459C478.507 79.1355 477.504 82.8672 477.5 86.6667V173.333C477.504 177.133 478.507 180.865 480.408 184.154C482.31 187.444 485.043 190.175 488.333 192.075L564.167 235.408C567.46 237.31 571.197 238.311 575 238.311C578.803 238.311 582.54 237.31 585.833 235.408L661.667 192.075C664.957 190.175 667.69 187.444 669.592 184.154C671.493 180.865 672.496 177.133 672.5 173.333Z" stroke="#B3B3B3" stroke-width="4" stroke-linecap="round" stroke-linejoin="round"/>
<path d="M574.5 341.333V254.667C574.496 250.867 573.493 247.135 571.592 243.846C569.69 240.556 566.957 237.825 563.667 235.925L487.833 192.592C484.54 190.69 480.803 189.689 477 189.689C473.197 189.689 469.46 190.69 466.167 192.592L390.333 235.925C387.043 237.825 384.31 240.556 382.408 243.846C380.507 247.135 379.504 250.867 379.5 254.667V341.333C379.504 345.133 380.507 348.865 382.408 352.154C384.31 355.444 387.043 358.175 390.333 360.075L466.167 403.408C469.46 405.31 473.197 406.311 477 406.311C480.803 406.311 484.54 405.31 487.833 403.408L563.667 360.075C566.957 358.175 569.69 355.444 571.592 352.154C573.493 348.865 574.496 345.133 574.5 341.333Z" stroke="#B3B3B3" stroke-width="4" stroke-linecap="round" stroke-linejoin="round"/>
<path d="M769.5 341.333V254.667C769.496 250.867 768.493 247.135 766.592 243.846C764.69 240.556 761.957 237.825 758.667 235.925L682.833 192.592C679.54 190.69 675.803 189.689 672 189.689C668.197 189.689 664.46 190.69 661.167 192.592L585.333 235.925C582.043 237.825 579.31 240.556 577.408 243.846C575.507 247.135 574.504 250.867 574.5 254.667V341.333C574.504 345.133 575.507 348.865 577.408 352.154C579.31 355.444 582.043 358.175 585.333 360.075L661.167 403.408C664.46 405.31 668.197 406.311 672 406.311C675.803 406.311 679.54 405.31 682.833 403.408L758.667 360.075C761.957 358.175 764.69 355.444 766.592 352.154C768.493 348.865 769.496 345.133 769.5 341.333Z" stroke="#B3B3B3" stroke-width="4" stroke-linecap="round" stroke-linejoin="round"/>
<path d="M87.5 173.333V86.6667C87.4961 82.8672 86.4931 79.1355 84.5917 75.8459C82.6902 72.5564 79.9572 69.8248 76.6667 67.925L0.83333 24.5917C-2.46042 22.69 -6.19671 21.6889 -10 21.6889C-13.8033 21.6889 -17.5396 22.69 -20.8333 24.5917L-96.6667 67.925C-99.9572 69.8248 -102.69 72.5564 -104.592 75.8459C-106.493 79.1355 -107.496 82.8672 -107.5 86.6667V173.333C-107.496 177.133 -106.493 180.865 -104.592 184.154C-102.69 187.444 -99.9572 190.175 -96.6667 192.075L-20.8333 235.408C-17.5396 237.31 -13.8033 238.311 -10 238.311C-6.19671 238.311 -2.46042 237.31 0.83333 235.408L76.6667 192.075C79.9572 190.175 82.6902 187.444 84.5917 184.154C86.4931 180.865 87.4961 177.133 87.5 173.333Z" stroke="#B3B3B3" stroke-width="4" stroke-linecap="round" stroke-linejoin="round"/>
<path d="M282.5 173.333V86.6667C282.496 82.8672 281.493 79.1355 279.592 75.8459C277.69 72.5564 274.957 69.8248 271.667 67.925L195.833 24.5917C192.54 22.69 188.803 21.6889 185 21.6889C181.197 21.6889 177.46 22.69 174.167 24.5917L98.3333 67.925C95.0428 69.8248 92.3098 72.5564 90.4083 75.8459C88.5069 79.1355 87.5039 82.8672 87.5 86.6667V173.333C87.5039 177.133 88.5069 180.865 90.4083 184.154C92.3098 187.444 95.0428 190.175 98.3333 192.075L174.167 235.408C177.46 237.31 181.197 238.311 185 238.311C188.803 238.311 192.54 237.31 195.833 235.408L271.667 192.075C274.957 190.175 277.69 187.444 279.592 184.154C281.493 180.865 282.496 177.133 282.5 173.333Z" stroke="#B3B3B3" stroke-width="4" stroke-linecap="round" stroke-linejoin="round"/>
<path d="M184.5 341.333V254.667C184.496 250.867 183.493 247.135 181.592 243.846C179.69 240.556 176.957 237.825 173.667 235.925L97.8333 192.592C94.5396 190.69 90.8033 189.689 87 189.689C83.1967 189.689 79.4604 190.69 76.1667 192.592L0.333333 235.925C-2.95716 237.825 -5.69022 240.556 -7.59167 243.846C-9.49312 247.135 -10.4961 250.867 -10.5 254.667V341.333C-10.4961 345.133 -9.49312 348.865 -7.59167 352.154C-5.69022 355.444 -2.95716 358.175 0.333333 360.075L76.1667 403.408C79.4604 405.31 83.1967 406.311 87 406.311C90.8033 406.311 94.5396 405.31 97.8333 403.408L173.667 360.075C176.957 358.175 179.69 355.444 181.592 352.154C183.493 348.865 184.496 345.133 184.5 341.333Z" stroke="#B3B3B3" stroke-width="4" stroke-linecap="round" stroke-linejoin="round"/>
<path d="M379.5 341.333V254.667C379.496 250.867 378.493 247.135 376.592 243.846C374.69 240.556 371.957 237.825 368.667 235.925L292.833 192.592C289.54 190.69 285.803 189.689 282 189.689C278.197 189.689 274.46 190.69 271.167 192.592L195.333 235.925C192.043 237.825 189.31 240.556 187.408 243.846C185.507 247.135 184.504 250.867 184.5 254.667V341.333C184.504 345.133 185.507 348.865 187.408 352.154C189.31 355.444 192.043 358.175 195.333 360.075L271.167 403.408C274.46 405.31 278.197 406.311 282 406.311C285.803 406.311 289.54 405.31 292.833 403.408L368.667 360.075C371.957 358.175 374.69 355.444 376.592 352.154C378.493 348.865 379.496 345.133 379.5 341.333Z" stroke="#B3B3B3" stroke-width="4" stroke-linecap="round" stroke-linejoin="round"/>
<path d="M1257.5 173.333V86.6667C1257.5 82.8672 1256.49 79.1355 1254.59 75.8459C1252.69 72.5564 1249.96 69.8248 1246.67 67.925L1170.83 24.5917C1167.54 22.69 1163.8 21.6889 1160 21.6889C1156.2 21.6889 1152.46 22.69 1149.17 24.5917L1073.33 67.925C1070.04 69.8248 1067.31 72.5564 1065.41 75.8459C1063.51 79.1355 1062.5 82.8672 1062.5 86.6667V173.333C1062.5 177.133 1063.51 180.865 1065.41 184.154C1067.31 187.444 1070.04 190.175 1073.33 192.075L1149.17 235.408C1152.46 237.31 1156.2 238.311 1160 238.311C1163.8 238.311 1167.54 237.31 1170.83 235.408L1246.67 192.075C1249.96 190.175 1252.69 187.444 1254.59 184.154C1256.49 180.865 1257.5 177.133 1257.5 173.333Z" stroke="#B3B3B3" stroke-width="4" stroke-linecap="round" stroke-linejoin="round"/>
<path d="M1452.5 173.333V86.6667C1452.5 82.8672 1451.49 79.1355 1449.59 75.8459C1447.69 72.5564 1444.96 69.8248 1441.67 67.925L1365.83 24.5917C1362.54 22.69 1358.8 21.6889 1355 21.6889C1351.2 21.6889 1347.46 22.69 1344.17 24.5917L1268.33 67.925C1265.04 69.8248 1262.31 72.5564 1260.41 75.8459C1258.51 79.1355 1257.5 82.8672 1257.5 86.6667V173.333C1257.5 177.133 1258.51 180.865 1260.41 184.154C1262.31 187.444 1265.04 190.175 1268.33 192.075L1344.17 235.408C1347.46 237.31 1351.2 238.311 1355 238.311C1358.8 238.311 1362.54 237.31 1365.83 235.408L1441.67 192.075C1444.96 190.175 1447.69 187.444 1449.59 184.154C1451.49 180.865 1452.5 177.133 1452.5 173.333Z" stroke="#B3B3B3" stroke-width="4" stroke-linecap="round" stroke-linejoin="round"/>
<path d="M1354.5 341.333V254.667C1354.5 250.867 1353.49 247.135 1351.59 243.846C1349.69 240.556 1346.96 237.825 1343.67 235.925L1267.83 192.592C1264.54 190.69 1260.8 189.689 1257 189.689C1253.2 189.689 1249.46 190.69 1246.17 192.592L1170.33 235.925C1167.04 237.825 1164.31 240.556 1162.41 243.846C1160.51 247.135 1159.5 250.867 1159.5 254.667V341.333C1159.5 345.133 1160.51 348.865 1162.41 352.154C1164.31 355.444 1167.04 358.175 1170.33 360.075L1246.17 403.408C1249.46 405.31 1253.2 406.311 1257 406.311C1260.8 406.311 1264.54 405.31 1267.83 403.408L1343.67 360.075C1346.96 358.175 1349.69 355.444 1351.59 352.154C1353.49 348.865 1354.5 345.133 1354.5 341.333Z" stroke="#B3B3B3" stroke-width="4" stroke-linecap="round" stroke-linejoin="round"/>
<path d="M1549.5 341.333V254.667C1549.5 250.867 1548.49 247.135 1546.59 243.846C1544.69 240.556 1541.96 237.825 1538.67 235.925L1462.83 192.592C1459.54 190.69 1455.8 189.689 1452 189.689C1448.2 189.689 1444.46 190.69 1441.17 192.592L1365.33 235.925C1362.04 237.825 1359.31 240.556 1357.41 243.846C1355.51 247.135 1354.5 250.867 1354.5 254.667V341.333C1354.5 345.133 1355.51 348.865 1357.41 352.154C1359.31 355.444 1362.04 358.175 1365.33 360.075L1441.17 403.408C1444.46 405.31 1448.2 406.311 1452 406.311C1455.8 406.311 1459.54 405.31 1462.83 403.408L1538.67 360.075C1541.96 358.175 1544.69 355.444 1546.59 352.154C1548.49 348.865 1549.5 345.133 1549.5 341.333Z" stroke="#B3B3B3" stroke-width="4" stroke-linecap="round" stroke-linejoin="round"/>
<path d="M867.5 173.333V86.6667C867.496 82.8672 866.493 79.1355 864.592 75.8459C862.69 72.5564 859.957 69.8248 856.667 67.925L780.833 24.5917C777.54 22.69 773.803 21.6889 770 21.6889C766.197 21.6889 762.46 22.69 759.167 24.5917L683.333 67.925C680.043 69.8248 677.31 72.5564 675.408 75.8459C673.507 79.1355 672.504 82.8672 672.5 86.6667V173.333C672.504 177.133 673.507 180.865 675.408 184.154C677.31 187.444 680.043 190.175 683.333 192.075L759.167 235.408C762.46 237.31 766.197 238.311 770 238.311C773.803 238.311 777.54 237.31 780.833 235.408L856.667 192.075C859.957 190.175 862.69 187.444 864.592 184.154C866.493 180.865 867.496 177.133 867.5 173.333Z" stroke="#B3B3B3" stroke-width="4" stroke-linecap="round" stroke-linejoin="round"/>
<path d="M1062.5 173.333V86.6667C1062.5 82.8672 1061.49 79.1355 1059.59 75.8459C1057.69 72.5564 1054.96 69.8248 1051.67 67.925L975.833 24.5917C972.54 22.69 968.803 21.6889 965 21.6889C961.197 21.6889 957.46 22.69 954.167 24.5917L878.333 67.925C875.043 69.8248 872.31 72.5564 870.408 75.8459C868.507 79.1355 867.504 82.8672 867.5 86.6667V173.333C867.504 177.133 868.507 180.865 870.408 184.154C872.31 187.444 875.043 190.175 878.333 192.075L954.167 235.408C957.46 237.31 961.197 238.311 965 238.311C968.803 238.311 972.54 237.31 975.833 235.408L1051.67 192.075C1054.96 190.175 1057.69 187.444 1059.59 184.154C1061.49 180.865 1062.5 177.133 1062.5 173.333Z" stroke="#B3B3B3" stroke-width="4" stroke-linecap="round" stroke-linejoin="round"/>
<path d="M964.5 341.333V254.667C964.496 250.867 963.493 247.135 961.592 243.846C959.69 240.556 956.957 237.825 953.667 235.925L877.833 192.592C874.54 190.69 870.803 189.689 867 189.689C863.197 189.689 859.46 190.69 856.167 192.592L780.333 235.925C777.043 237.825 774.31 240.556 772.408 243.846C770.507 247.135 769.504 250.867 769.5 254.667V341.333C769.504 345.133 770.507 348.865 772.408 352.154C774.31 355.444 777.043 358.175 780.333 360.075L856.167 403.408C859.46 405.31 863.197 406.311 867 406.311C870.803 406.311 874.54 405.31 877.833 403.408L953.667 360.075C956.957 358.175 959.69 355.444 961.592 352.154C963.493 348.865 964.496 345.133 964.5 341.333Z" stroke="#B3B3B3" stroke-width="4" stroke-linecap="round" stroke-linejoin="round"/>
<path d="M1159.5 341.333V254.667C1159.5 250.867 1158.49 247.135 1156.59 243.846C1154.69 240.556 1151.96 237.825 1148.67 235.925L1072.83 192.592C1069.54 190.69 1065.8 189.689 1062 189.689C1058.2 189.689 1054.46 190.69 1051.17 192.592L975.333 235.925C972.043 237.825 969.31 240.556 967.408 243.846C965.507 247.135 964.504 250.867 964.5 254.667V341.333C964.504 345.133 965.507 348.865 967.408 352.154C969.31 355.444 972.043 358.175 975.333 360.075L1051.17 403.408C1054.46 405.31 1058.2 406.311 1062 406.311C1065.8 406.311 1069.54 405.31 1072.83 403.408L1148.67 360.075C1151.96 358.175 1154.69 355.444 1156.59 352.154C1158.49 348.865 1159.5 345.133 1159.5 341.333Z" stroke="#B3B3B3" stroke-width="4" stroke-linecap="round" stroke-linejoin="round"/>
<path d="M477.5 507.333V420.667C477.496 416.867 476.493 413.135 474.592 409.846C472.69 406.556 469.957 403.825 466.667 401.925L390.833 358.592C387.54 356.69 383.803 355.689 380 355.689C376.197 355.689 372.46 356.69 369.167 358.592L293.333 401.925C290.043 403.825 287.31 406.556 285.408 409.846C283.507 413.135 282.504 416.867 282.5 420.667V507.333C282.504 511.133 283.507 514.865 285.408 518.154C287.31 521.444 290.043 524.175 293.333 526.075L369.167 569.408C372.46 571.31 376.197 572.311 380 572.311C383.803 572.311 387.54 571.31 390.833 569.408L466.667 526.075C469.957 524.175 472.69 521.444 474.592 518.154C476.493 514.865 477.496 511.133 477.5 507.333Z" stroke="#B3B3B3" stroke-width="4" stroke-linecap="round" stroke-linejoin="round"/>
<path d="M672.5 507.333V420.667C672.496 416.867 671.493 413.135 669.592 409.846C667.69 406.556 664.957 403.825 661.667 401.925L585.833 358.592C582.54 356.69 578.803 355.689 575 355.689C571.197 355.689 567.46 356.69 564.167 358.592L488.333 401.925C485.043 403.825 482.31 406.556 480.408 409.846C478.507 413.135 477.504 416.867 477.5 420.667V507.333C477.504 511.133 478.507 514.865 480.408 518.154C482.31 521.444 485.043 524.175 488.333 526.075L564.167 569.408C567.46 571.31 571.197 572.311 575 572.311C578.803 572.311 582.54 571.31 585.833 569.408L661.667 526.075C664.957 524.175 667.69 521.444 669.592 518.154C671.493 514.865 672.496 511.133 672.5 507.333Z" stroke="#B3B3B3" stroke-width="4" stroke-linecap="round" stroke-linejoin="round"/>
<path d="M574.5 675.333V588.667C574.496 584.867 573.493 581.135 571.592 577.846C569.69 574.556 566.957 571.825 563.667 569.925L487.833 526.592C484.54 524.69 480.803 523.689 477 523.689C473.197 523.689 469.46 524.69 466.167 526.592L390.333 569.925C387.043 571.825 384.31 574.556 382.408 577.846C380.507 581.135 379.504 584.867 379.5 588.667V675.333C379.504 679.133 380.507 682.865 382.408 686.154C384.31 689.444 387.043 692.175 390.333 694.075L466.167 737.408C469.46 739.31 473.197 740.311 477 740.311C480.803 740.311 484.54 739.31 487.833 737.408L563.667 694.075C566.957 692.175 569.69 689.444 571.592 686.154C573.493 682.865 574.496 679.133 574.5 675.333Z" stroke="#B3B3B3" stroke-width="4" stroke-linecap="round" stroke-linejoin="round"/>
<path d="M769.5 675.333V588.667C769.496 584.867 768.493 581.135 766.592 577.846C764.69 574.556 761.957 571.825 758.667 569.925L682.833 526.592C679.54 524.69 675.803 523.689 672 523.689C668.197 523.689 664.46 524.69 661.167 526.592L585.333 569.925C582.043 571.825 579.31 574.556 577.408 577.846C575.507 581.135 574.504 584.867 574.5 588.667V675.333C574.504 679.133 575.507 682.865 577.408 686.154C579.31 689.444 582.043 692.175 585.333 694.075L661.167 737.408C664.46 739.31 668.197 740.311 672 740.311C675.803 740.311 679.54 739.31 682.833 737.408L758.667 694.075C761.957 692.175 764.69 689.444 766.592 686.154C768.493 682.865 769.496 679.133 769.5 675.333Z" stroke="#B3B3B3" stroke-width="4" stroke-linecap="round" stroke-linejoin="round"/>
<path d="M87.5 507.333V420.667C87.4961 416.867 86.4931 413.135 84.5917 409.846C82.6902 406.556 79.9572 403.825 76.6667 401.925L0.83333 358.592C-2.46042 356.69 -6.19671 355.689 -10 355.689C-13.8033 355.689 -17.5396 356.69 -20.8333 358.592L-96.6667 401.925C-99.9572 403.825 -102.69 406.556 -104.592 409.846C-106.493 413.135 -107.496 416.867 -107.5 420.667V507.333C-107.496 511.133 -106.493 514.865 -104.592 518.154C-102.69 521.444 -99.9572 524.175 -96.6667 526.075L-20.8333 569.408C-17.5396 571.31 -13.8033 572.311 -10 572.311C-6.19671 572.311 -2.46042 571.31 0.83333 569.408L76.6667 526.075C79.9572 524.175 82.6902 521.444 84.5917 518.154C86.4931 514.865 87.4961 511.133 87.5 507.333Z" stroke="#B3B3B3" stroke-width="4" stroke-linecap="round" stroke-linejoin="round"/>
<path d="M282.5 507.333V420.667C282.496 416.867 281.493 413.135 279.592 409.846C277.69 406.556 274.957 403.825 271.667 401.925L195.833 358.592C192.54 356.69 188.803 355.689 185 355.689C181.197 355.689 177.46 356.69 174.167 358.592L98.3333 401.925C95.0428 403.825 92.3098 406.556 90.4083 409.846C88.5069 413.135 87.5039 416.867 87.5 420.667V507.333C87.5039 511.133 88.5069 514.865 90.4083 518.154C92.3098 521.444 95.0428 524.175 98.3333 526.075L174.167 569.408C177.46 571.31 181.197 572.311 185 572.311C188.803 572.311 192.54 571.31 195.833 569.408L271.667 526.075C274.957 524.175 277.69 521.444 279.592 518.154C281.493 514.865 282.496 511.133 282.5 507.333Z" stroke="#B3B3B3" stroke-width="4" stroke-linecap="round" stroke-linejoin="round"/>
<path d="M184.5 675.333V588.667C184.496 584.867 183.493 581.135 181.592 577.846C179.69 574.556 176.957 571.825 173.667 569.925L97.8333 526.592C94.5396 524.69 90.8033 523.689 87 523.689C83.1967 523.689 79.4604 524.69 76.1667 526.592L0.333333 569.925C-2.95716 571.825 -5.69022 574.556 -7.59167 577.846C-9.49312 581.135 -10.4961 584.867 -10.5 588.667V675.333C-10.4961 679.133 -9.49312 682.865 -7.59167 686.154C-5.69022 689.444 -2.95716 692.175 0.333333 694.075L76.1667 737.408C79.4604 739.31 83.1967 740.311 87 740.311C90.8033 740.311 94.5396 739.31 97.8333 737.408L173.667 694.075C176.957 692.175 179.69 689.444 181.592 686.154C183.493 682.865 184.496 679.133 184.5 675.333Z" stroke="#B3B3B3" stroke-width="4" stroke-linecap="round" stroke-linejoin="round"/>
<path d="M379.5 675.333V588.667C379.496 584.867 378.493 581.135 376.592 577.846C374.69 574.556 371.957 571.825 368.667 569.925L292.833 526.592C289.54 524.69 285.803 523.689 282 523.689C278.197 523.689 274.46 524.69 271.167 526.592L195.333 569.925C192.043 571.825 189.31 574.556 187.408 577.846C185.507 581.135 184.504 584.867 184.5 588.667V675.333C184.504 679.133 185.507 682.865 187.408 686.154C189.31 689.444 192.043 692.175 195.333 694.075L271.167 737.408C274.46 739.31 278.197 740.311 282 740.311C285.803 740.311 289.54 739.31 292.833 737.408L368.667 694.075C371.957 692.175 374.69 689.444 376.592 686.154C378.493 682.865 379.496 679.133 379.5 675.333Z" stroke="#B3B3B3" stroke-width="4" stroke-linecap="round" stroke-linejoin="round"/>
<path d="M1257.5 507.333V420.667C1257.5 416.867 1256.49 413.135 1254.59 409.846C1252.69 406.556 1249.96 403.825 1246.67 401.925L1170.83 358.592C1167.54 356.69 1163.8 355.689 1160 355.689C1156.2 355.689 1152.46 356.69 1149.17 358.592L1073.33 401.925C1070.04 403.825 1067.31 406.556 1065.41 409.846C1063.51 413.135 1062.5 416.867 1062.5 420.667V507.333C1062.5 511.133 1063.51 514.865 1065.41 518.154C1067.31 521.444 1070.04 524.175 1073.33 526.075L1149.17 569.408C1152.46 571.31 1156.2 572.311 1160 572.311C1163.8 572.311 1167.54 571.31 1170.83 569.408L1246.67 526.075C1249.96 524.175 1252.69 521.444 1254.59 518.154C1256.49 514.865 1257.5 511.133 1257.5 507.333Z" stroke="#B3B3B3" stroke-width="4" stroke-linecap="round" stroke-linejoin="round"/>
<path d="M1452.5 507.333V420.667C1452.5 416.867 1451.49 413.135 1449.59 409.846C1447.69 406.556 1444.96 403.825 1441.67 401.925L1365.83 358.592C1362.54 356.69 1358.8 355.689 1355 355.689C1351.2 355.689 1347.46 356.69 1344.17 358.592L1268.33 401.925C1265.04 403.825 1262.31 406.556 1260.41 409.846C1258.51 413.135 1257.5 416.867 1257.5 420.667V507.333C1257.5 511.133 1258.51 514.865 1260.41 518.154C1262.31 521.444 1265.04 524.175 1268.33 526.075L1344.17 569.408C1347.46 571.31 1351.2 572.311 1355 572.311C1358.8 572.311 1362.54 571.31 1365.83 569.408L1441.67 526.075C1444.96 524.175 1447.69 521.444 1449.59 518.154C1451.49 514.865 1452.5 511.133 1452.5 507.333Z" stroke="#B3B3B3" stroke-width="4" stroke-linecap="round" stroke-linejoin="round"/>
<path d="M1354.5 675.333V588.667C1354.5 584.867 1353.49 581.135 1351.59 577.846C1349.69 574.556 1346.96 571.825 1343.67 569.925L1267.83 526.592C1264.54 524.69 1260.8 523.689 1257 523.689C1253.2 523.689 1249.46 524.69 1246.17 526.592L1170.33 569.925C1167.04 571.825 1164.31 574.556 1162.41 577.846C1160.51 581.135 1159.5 584.867 1159.5 588.667V675.333C1159.5 679.133 1160.51 682.865 1162.41 686.154C1164.31 689.444 1167.04 692.175 1170.33 694.075L1246.17 737.408C1249.46 739.31 1253.2 740.311 1257 740.311C1260.8 740.311 1264.54 739.31 1267.83 737.408L1343.67 694.075C1346.96 692.175 1349.69 689.444 1351.59 686.154C1353.49 682.865 1354.5 679.133 1354.5 675.333Z" stroke="#B3B3B3" stroke-width="4" stroke-linecap="round" stroke-linejoin="round"/>
<path d="M1549.5 675.333V588.667C1549.5 584.867 1548.49 581.135 1546.59 577.846C1544.69 574.556 1541.96 571.825 1538.67 569.925L1462.83 526.592C1459.54 524.69 1455.8 523.689 1452 523.689C1448.2 523.689 1444.46 524.69 1441.17 526.592L1365.33 569.925C1362.04 571.825 1359.31 574.556 1357.41 577.846C1355.51 581.135 1354.5 584.867 1354.5 588.667V675.333C1354.5 679.133 1355.51 682.865 1357.41 686.154C1359.31 689.444 1362.04 692.175 1365.33 694.075L1441.17 737.408C1444.46 739.31 1448.2 740.311 1452 740.311C1455.8 740.311 1459.54 739.31 1462.83 737.408L1538.67 694.075C1541.96 692.175 1544.69 689.444 1546.59 686.154C1548.49 682.865 1549.5 679.133 1549.5 675.333Z" stroke="#B3B3B3" stroke-width="4" stroke-linecap="round" stroke-linejoin="round"/>
<path d="M867.5 507.333V420.667C867.496 416.867 866.493 413.135 864.592 409.846C862.69 406.556 859.957 403.825 856.667 401.925L780.833 358.592C777.54 356.69 773.803 355.689 770 355.689C766.197 355.689 762.46 356.69 759.167 358.592L683.333 401.925C680.043 403.825 677.31 406.556 675.408 409.846C673.507 413.135 672.504 416.867 672.5 420.667V507.333C672.504 511.133 673.507 514.865 675.408 518.154C677.31 521.444 680.043 524.175 683.333 526.075L759.167 569.408C762.46 571.31 766.197 572.311 770 572.311C773.803 572.311 777.54 571.31 780.833 569.408L856.667 526.075C859.957 524.175 862.69 521.444 864.592 518.154C866.493 514.865 867.496 511.133 867.5 507.333Z" stroke="#B3B3B3" stroke-width="4" stroke-linecap="round" stroke-linejoin="round"/>
<path d="M1062.5 507.333V420.667C1062.5 416.867 1061.49 413.135 1059.59 409.846C1057.69 406.556 1054.96 403.825 1051.67 401.925L975.833 358.592C972.54 356.69 968.803 355.689 965 355.689C961.197 355.689 957.46 356.69 954.167 358.592L878.333 401.925C875.043 403.825 872.31 406.556 870.408 409.846C868.507 413.135 867.504 416.867 867.5 420.667V507.333C867.504 511.133 868.507 514.865 870.408 518.154C872.31 521.444 875.043 524.175 878.333 526.075L954.167 569.408C957.46 571.31 961.197 572.311 965 572.311C968.803 572.311 972.54 571.31 975.833 569.408L1051.67 526.075C1054.96 524.175 1057.69 521.444 1059.59 518.154C1061.49 514.865 1062.5 511.133 1062.5 507.333Z" stroke="#B3B3B3" stroke-width="4" stroke-linecap="round" stroke-linejoin="round"/>
<path d="M964.5 675.333V588.667C964.496 584.867 963.493 581.135 961.592 577.846C959.69 574.556 956.957 571.825 953.667 569.925L877.833 526.592C874.54 524.69 870.803 523.689 867 523.689C863.197 523.689 859.46 524.69 856.167 526.592L780.333 569.925C777.043 571.825 774.31 574.556 772.408 577.846C770.507 581.135 769.504 584.867 769.5 588.667V675.333C769.504 679.133 770.507 682.865 772.408 686.154C774.31 689.444 777.043 692.175 780.333 694.075L856.167 737.408C859.46 739.31 863.197 740.311 867 740.311C870.803 740.311 874.54 739.31 877.833 737.408L953.667 694.075C956.957 692.175 959.69 689.444 961.592 686.154C963.493 682.865 964.496 679.133 964.5 675.333Z" stroke="#B3B3B3" stroke-width="4" stroke-linecap="round" stroke-linejoin="round"/>
<path d="M1159.5 675.333V588.667C1159.5 584.867 1158.49 581.135 1156.59 577.846C1154.69 574.556 1151.96 571.825 1148.67 569.925L1072.83 526.592C1069.54 524.69 1065.8 523.689 1062 523.689C1058.2 523.689 1054.46 524.69 1051.17 526.592L975.333 569.925C972.043 571.825 969.31 574.556 967.408 577.846C965.507 581.135 964.504 584.867 964.5 588.667V675.333C964.504 679.133 965.507 682.865 967.408 686.154C969.31 689.444 972.043 692.175 975.333 694.075L1051.17 737.408C1054.46 739.31 1058.2 740.311 1062 740.311C1065.8 740.311 1069.54 739.31 1072.83 737.408L1148.67 694.075C1151.96 692.175 1154.69 689.444 1156.59 686.154C1158.49 682.865 1159.5 679.133 1159.5 675.333Z" stroke="#B3B3B3" stroke-width="4" stroke-linecap="round" stroke-linejoin="round"/>
<path d="M476.5 841.333V754.667C476.496 750.867 475.493 747.135 473.592 743.846C471.69 740.556 468.957 737.825 465.667 735.925L389.833 692.592C386.54 690.69 382.803 689.689 379 689.689C375.197 689.689 371.46 690.69 368.167 692.592L292.333 735.925C289.043 737.825 286.31 740.556 284.408 743.846C282.507 747.135 281.504 750.867 281.5 754.667V841.333C281.504 845.133 282.507 848.865 284.408 852.154C286.31 855.444 289.043 858.175 292.333 860.075L368.167 903.408C371.46 905.31 375.197 906.311 379 906.311C382.803 906.311 386.54 905.31 389.833 903.408L465.667 860.075C468.957 858.175 471.69 855.444 473.592 852.154C475.493 848.865 476.496 845.133 476.5 841.333Z" stroke="#B3B3B3" stroke-width="4" stroke-linecap="round" stroke-linejoin="round"/>
<path d="M671.5 841.333V754.667C671.496 750.867 670.493 747.135 668.592 743.846C666.69 740.556 663.957 737.825 660.667 735.925L584.833 692.592C581.54 690.69 577.803 689.689 574 689.689C570.197 689.689 566.46 690.69 563.167 692.592L487.333 735.925C484.043 737.825 481.31 740.556 479.408 743.846C477.507 747.135 476.504 750.867 476.5 754.667V841.333C476.504 845.133 477.507 848.865 479.408 852.154C481.31 855.444 484.043 858.175 487.333 860.075L563.167 903.408C566.46 905.31 570.197 906.311 574 906.311C577.803 906.311 581.54 905.31 584.833 903.408L660.667 860.075C663.957 858.175 666.69 855.444 668.592 852.154C670.493 848.865 671.496 845.133 671.5 841.333Z" stroke="#B3B3B3" stroke-width="4" stroke-linecap="round" stroke-linejoin="round"/>
<path d="M86.5 841.333V754.667C86.4961 750.867 85.4931 747.135 83.5917 743.846C81.6902 740.556 78.9572 737.825 75.6667 735.925L-0.16667 692.592C-3.46042 690.69 -7.19671 689.689 -11 689.689C-14.8033 689.689 -18.5396 690.69 -21.8333 692.592L-97.6667 735.925C-100.957 737.825 -103.69 740.556 -105.592 743.846C-107.493 747.135 -108.496 750.867 -108.5 754.667V841.333C-108.496 845.133 -107.493 848.865 -105.592 852.154C-103.69 855.444 -100.957 858.175 -97.6667 860.075L-21.8333 903.408C-18.5396 905.31 -14.8033 906.311 -11 906.311C-7.19671 906.311 -3.46042 905.31 -0.16667 903.408L75.6667 860.075C78.9572 858.175 81.6902 855.444 83.5917 852.154C85.4931 848.865 86.4961 845.133 86.5 841.333Z" stroke="#B3B3B3" stroke-width="4" stroke-linecap="round" stroke-linejoin="round"/>
<path d="M281.5 841.333V754.667C281.496 750.867 280.493 747.135 278.592 743.846C276.69 740.556 273.957 737.825 270.667 735.925L194.833 692.592C191.54 690.69 187.803 689.689 184 689.689C180.197 689.689 176.46 690.69 173.167 692.592L97.3333 735.925C94.0428 737.825 91.3098 740.556 89.4083 743.846C87.5069 747.135 86.5039 750.867 86.5 754.667V841.333C86.5039 845.133 87.5069 848.865 89.4083 852.154C91.3098 855.444 94.0428 858.175 97.3333 860.075L173.167 903.408C176.46 905.31 180.197 906.311 184 906.311C187.803 906.311 191.54 905.31 194.833 903.408L270.667 860.075C273.957 858.175 276.69 855.444 278.592 852.154C280.493 848.865 281.496 845.133 281.5 841.333Z" stroke="#B3B3B3" stroke-width="4" stroke-linecap="round" stroke-linejoin="round"/>
<path d="M1256.5 841.333V754.667C1256.5 750.867 1255.49 747.135 1253.59 743.846C1251.69 740.556 1248.96 737.825 1245.67 735.925L1169.83 692.592C1166.54 690.69 1162.8 689.689 1159 689.689C1155.2 689.689 1151.46 690.69 1148.17 692.592L1072.33 735.925C1069.04 737.825 1066.31 740.556 1064.41 743.846C1062.51 747.135 1061.5 750.867 1061.5 754.667V841.333C1061.5 845.133 1062.51 848.865 1064.41 852.154C1066.31 855.444 1069.04 858.175 1072.33 860.075L1148.17 903.408C1151.46 905.31 1155.2 906.311 1159 906.311C1162.8 906.311 1166.54 905.31 1169.83 903.408L1245.67 860.075C1248.96 858.175 1251.69 855.444 1253.59 852.154C1255.49 848.865 1256.5 845.133 1256.5 841.333Z" stroke="#B3B3B3" stroke-width="4" stroke-linecap="round" stroke-linejoin="round"/>
<path d="M1451.5 841.333V754.667C1451.5 750.867 1450.49 747.135 1448.59 743.846C1446.69 740.556 1443.96 737.825 1440.67 735.925L1364.83 692.592C1361.54 690.69 1357.8 689.689 1354 689.689C1350.2 689.689 1346.46 690.69 1343.17 692.592L1267.33 735.925C1264.04 737.825 1261.31 740.556 1259.41 743.846C1257.51 747.135 1256.5 750.867 1256.5 754.667V841.333C1256.5 845.133 1257.51 848.865 1259.41 852.154C1261.31 855.444 1264.04 858.175 1267.33 860.075L1343.17 903.408C1346.46 905.31 1350.2 906.311 1354 906.311C1357.8 906.311 1361.54 905.31 1364.83 903.408L1440.67 860.075C1443.96 858.175 1446.69 855.444 1448.59 852.154C1450.49 848.865 1451.5 845.133 1451.5 841.333Z" stroke="#B3B3B3" stroke-width="4" stroke-linecap="round" stroke-linejoin="round"/>
<path d="M866.5 841.333V754.667C866.496 750.867 865.493 747.135 863.592 743.846C861.69 740.556 858.957 737.825 855.667 735.925L779.833 692.592C776.54 690.69 772.803 689.689 769 689.689C765.197 689.689 761.46 690.69 758.167 692.592L682.333 735.925C679.043 737.825 676.31 740.556 674.408 743.846C672.507 747.135 671.504 750.867 671.5 754.667V841.333C671.504 845.133 672.507 848.865 674.408 852.154C676.31 855.444 679.043 858.175 682.333 860.075L758.167 903.408C761.46 905.31 765.197 906.311 769 906.311C772.803 906.311 776.54 905.31 779.833 903.408L855.667 860.075C858.957 858.175 861.69 855.444 863.592 852.154C865.493 848.865 866.496 845.133 866.5 841.333Z" stroke="#B3B3B3" stroke-width="4" stroke-linecap="round" stroke-linejoin="round"/>
<path d="M1061.5 841.333V754.667C1061.5 750.867 1060.49 747.135 1058.59 743.846C1056.69 740.556 1053.96 737.825 1050.67 735.925L974.833 692.592C971.54 690.69 967.803 689.689 964 689.689C960.197 689.689 956.46 690.69 953.167 692.592L877.333 735.925C874.043 737.825 871.31 740.556 869.408 743.846C867.507 747.135 866.504 750.867 866.5 754.667V841.333C866.504 845.133 867.507 848.865 869.408 852.154C871.31 855.444 874.043 858.175 877.333 860.075L953.167 903.408C956.46 905.31 960.197 906.311 964 906.311C967.803 906.311 971.54 905.31 974.833 903.408L1050.67 860.075C1053.96 858.175 1056.69 855.444 1058.59 852.154C1060.49 848.865 1061.5 845.133 1061.5 841.333Z" stroke="#B3B3B3" stroke-width="4" stroke-linecap="round" stroke-linejoin="round"/>
<path d="M574.5 1009.33V922.667C574.496 918.867 573.493 915.135 571.592 911.846C569.69 908.556 566.957 905.825 563.667 903.925L487.833 860.592C484.54 858.69 480.803 857.689 477 857.689C473.197 857.689 469.46 858.69 466.167 860.592L390.333 903.925C387.043 905.825 384.31 908.556 382.408 911.846C380.507 915.135 379.504 918.867 379.5 922.667V1009.33C379.504 1013.13 380.507 1016.86 382.408 1020.15C384.31 1023.44 387.043 1026.18 390.333 1028.07L466.167 1071.41C469.46 1073.31 473.197 1074.31 477 1074.31C480.803 1074.31 484.54 1073.31 487.833 1071.41L563.667 1028.07C566.957 1026.18 569.69 1023.44 571.592 1020.15C573.493 1016.86 574.496 1013.13 574.5 1009.33Z" stroke="#B3B3B3" stroke-width="4" stroke-linecap="round" stroke-linejoin="round"/>
<path d="M769.5 1009.33V922.667C769.496 918.867 768.493 915.135 766.592 911.846C764.69 908.556 761.957 905.825 758.667 903.925L682.833 860.592C679.54 858.69 675.803 857.689 672 857.689C668.197 857.689 664.46 858.69 661.167 860.592L585.333 903.925C582.043 905.825 579.31 908.556 577.408 911.846C575.507 915.135 574.504 918.867 574.5 922.667V1009.33C574.504 1013.13 575.507 1016.86 577.408 1020.15C579.31 1023.44 582.043 1026.18 585.333 1028.07L661.167 1071.41C664.46 1073.31 668.197 1074.31 672 1074.31C675.803 1074.31 679.54 1073.31 682.833 1071.41L758.667 1028.07C761.957 1026.18 764.69 1023.44 766.592 1020.15C768.493 1016.86 769.496 1013.13 769.5 1009.33Z" stroke="#B3B3B3" stroke-width="4" stroke-linecap="round" stroke-linejoin="round"/>
<path d="M184.5 1009.33V922.667C184.496 918.867 183.493 915.135 181.592 911.846C179.69 908.556 176.957 905.825 173.667 903.925L97.8333 860.592C94.5396 858.69 90.8033 857.689 87 857.689C83.1967 857.689 79.4604 858.69 76.1667 860.592L0.333333 903.925C-2.95716 905.825 -5.69022 908.556 -7.59167 911.846C-9.49312 915.135 -10.4961 918.867 -10.5 922.667V1009.33C-10.4961 1013.13 -9.49312 1016.86 -7.59167 1020.15C-5.69022 1023.44 -2.95716 1026.18 0.333333 1028.07L76.1667 1071.41C79.4604 1073.31 83.1967 1074.31 87 1074.31C90.8033 1074.31 94.5396 1073.31 97.8333 1071.41L173.667 1028.07C176.957 1026.18 179.69 1023.44 181.592 1020.15C183.493 1016.86 184.496 1013.13 184.5 1009.33Z" stroke="#B3B3B3" stroke-width="4" stroke-linecap="round" stroke-linejoin="round"/>
<path d="M379.5 1009.33V922.667C379.496 918.867 378.493 915.135 376.592 911.846C374.69 908.556 371.957 905.825 368.667 903.925L292.833 860.592C289.54 858.69 285.803 857.689 282 857.689C278.197 857.689 274.46 858.69 271.167 860.592L195.333 903.925C192.043 905.825 189.31 908.556 187.408 911.846C185.507 915.135 184.504 918.867 184.5 922.667V1009.33C184.504 1013.13 185.507 1016.86 187.408 1020.15C189.31 1023.44 192.043 1026.18 195.333 1028.07L271.167 1071.41C274.46 1073.31 278.197 1074.31 282 1074.31C285.803 1074.31 289.54 1073.31 292.833 1071.41L368.667 1028.07C371.957 1026.18 374.69 1023.44 376.592 1020.15C378.493 1016.86 379.496 1013.13 379.5 1009.33Z" stroke="#B3B3B3" stroke-width="4" stroke-linecap="round" stroke-linejoin="round"/>
<path d="M1354.5 1009.33V922.667C1354.5 918.867 1353.49 915.135 1351.59 911.846C1349.69 908.556 1346.96 905.825 1343.67 903.925L1267.83 860.592C1264.54 858.69 1260.8 857.689 1257 857.689C1253.2 857.689 1249.46 858.69 1246.17 860.592L1170.33 903.925C1167.04 905.825 1164.31 908.556 1162.41 911.846C1160.51 915.135 1159.5 918.867 1159.5 922.667V1009.33C1159.5 1013.13 1160.51 1016.86 1162.41 1020.15C1164.31 1023.44 1167.04 1026.18 1170.33 1028.07L1246.17 1071.41C1249.46 1073.31 1253.2 1074.31 1257 1074.31C1260.8 1074.31 1264.54 1073.31 1267.83 1071.41L1343.67 1028.07C1346.96 1026.18 1349.69 1023.44 1351.59 1020.15C1353.49 1016.86 1354.5 1013.13 1354.5 1009.33Z" stroke="#B3B3B3" stroke-width="4" stroke-linecap="round" stroke-linejoin="round"/>
<path d="M1549.5 1009.33V922.667C1549.5 918.867 1548.49 915.135 1546.59 911.846C1544.69 908.556 1541.96 905.825 1538.67 903.925L1462.83 860.592C1459.54 858.69 1455.8 857.689 1452 857.689C1448.2 857.689 1444.46 858.69 1441.17 860.592L1365.33 903.925C1362.04 905.825 1359.31 908.556 1357.41 911.846C1355.51 915.135 1354.5 918.867 1354.5 922.667V1009.33C1354.5 1013.13 1355.51 1016.86 1357.41 1020.15C1359.31 1023.44 1362.04 1026.18 1365.33 1028.07L1441.17 1071.41C1444.46 1073.31 1448.2 1074.31 1452 1074.31C1455.8 1074.31 1459.54 1073.31 1462.83 1071.41L1538.67 1028.07C1541.96 1026.18 1544.69 1023.44 1546.59 1020.15C1548.49 1016.86 1549.5 1013.13 1549.5 1009.33Z" stroke="#B3B3B3" stroke-width="4" stroke-linecap="round" stroke-linejoin="round"/>
<path d="M964.5 1009.33V922.667C964.496 918.867 963.493 915.135 961.592 911.846C959.69 908.556 956.957 905.825 953.667 903.925L877.833 860.592C874.54 858.69 870.803 857.689 867 857.689C863.197 857.689 859.46 858.69 856.167 860.592L780.333 903.925C777.043 905.825 774.31 908.556 772.408 911.846C770.507 915.135 769.504 918.867 769.5 922.667V1009.33C769.504 1013.13 770.507 1016.86 772.408 1020.15C774.31 1023.44 777.043 1026.18 780.333 1028.07L856.167 1071.41C859.46 1073.31 863.197 1074.31 867 1074.31C870.803 1074.31 874.54 1073.31 877.833 1071.41L953.667 1028.07C956.957 1026.18 959.69 1023.44 961.592 1020.15C963.493 1016.86 964.496 1013.13 964.5 1009.33Z" stroke="#B3B3B3" stroke-width="4" stroke-linecap="round" stroke-linejoin="round"/>
<path d="M1159.5 1009.33V922.667C1159.5 918.867 1158.49 915.135 1156.59 911.846C1154.69 908.556 1151.96 905.825 1148.67 903.925L1072.83 860.592C1069.54 858.69 1065.8 857.689 1062 857.689C1058.2 857.689 1054.46 858.69 1051.17 860.592L975.333 903.925C972.043 905.825 969.31 908.556 967.408 911.846C965.507 915.135 964.504 918.867 964.5 922.667V1009.33C964.504 1013.13 965.507 1016.86 967.408 1020.15C969.31 1023.44 972.043 1026.18 975.333 1028.07L1051.17 1071.41C1054.46 1073.31 1058.2 1074.31 1062 1074.31C1065.8 1074.31 1069.54 1073.31 1072.83 1071.41L1148.67 1028.07C1151.96 1026.18 1154.69 1023.44 1156.59 1020.15C1158.49 1016.86 1159.5 1013.13 1159.5 1009.33Z" stroke="#B3B3B3" stroke-width="4" stroke-linecap="round" stroke-linejoin="round"/>
</g>
</svg>
