<svg xmlns="http://www.w3.org/2000/svg" xmlns:xlink="http://www.w3.org/1999/xlink" width="600" zoomAndPan="magnify" viewBox="0 0 450 449.999984" height="600" preserveAspectRatio="xMidYMid meet" version="1.2"><defs><clipPath id="dc50d186b0"><path d="M 0 14.84375 L 450 14.84375 L 450 419.84375 L 0 419.84375 Z M 0 14.84375 "/></clipPath></defs><g id="e8b7174397"><path style=" stroke:none;fill-rule:nonzero;fill:#93aaf0;fill-opacity:1;" d="M 7.5 149.84375 L 7.5 44.84375 C 7.5 32.421875 17.578125 22.34375 30 22.34375 L 136.433594 22.34375 C 145.195312 22.34375 153.691406 25.421875 160.429688 31.046875 L 184.570312 51.144531 C 191.308594 56.769531 199.804688 59.84375 208.5625 59.84375 L 420 59.84375 C 432.421875 59.84375 442.5 69.921875 442.5 82.34375 L 442.5 149.84375 L 7.5 149.84375 "/><path style=" stroke:none;fill-rule:nonzero;fill:#ffffff;fill-opacity:1;" d="M 45 134.84375 L 45 112.34375 C 45 99.894531 55.050781 89.84375 67.5 89.84375 L 382.5 89.84375 C 394.949219 89.84375 405 99.894531 405 112.34375 L 405 134.84375 L 45 134.84375 "/><path style=" stroke:none;fill-rule:nonzero;fill:#ceeefb;fill-opacity:1;" d="M 420 412.34375 L 30 412.34375 C 17.578125 412.34375 7.5 402.265625 7.5 389.84375 L 7.5 149.84375 C 7.5 137.421875 17.578125 127.34375 30 127.34375 L 420 127.34375 C 432.421875 127.34375 442.5 137.421875 442.5 149.84375 L 442.5 389.84375 C 442.5 402.265625 432.421875 412.34375 420 412.34375 "/><g clip-rule="nonzero" clip-path="url(#dc50d186b0)"><path style=" stroke:none;fill-rule:nonzero;fill:#1d1e1f;fill-opacity:1;" d="M 420 119.84375 L 412.5 119.84375 L 412.5 112.34375 C 412.5 95.792969 399.050781 82.34375 382.5 82.34375 L 67.5 82.34375 C 50.949219 82.34375 37.5 95.792969 37.5 112.34375 L 37.5 119.84375 L 30 119.84375 C 24.523438 119.84375 19.425781 121.425781 15 124.003906 L 15 44.84375 C 15 36.582031 21.738281 29.84375 30 29.84375 L 136.433594 29.84375 C 143.4375 29.84375 150.234375 32.304688 155.625 36.789062 L 179.765625 56.914062 C 187.851562 63.652344 198.074219 67.34375 208.5625 67.34375 L 420 67.34375 C 428.261719 67.34375 435 74.082031 435 82.34375 L 435 124.003906 C 430.574219 121.425781 425.476562 119.84375 420 119.84375 Z M 397.5 119.84375 L 52.5 119.84375 L 52.5 112.34375 C 52.5 104.082031 59.238281 97.34375 67.5 97.34375 L 382.5 97.34375 C 390.761719 97.34375 397.5 104.082031 397.5 112.34375 Z M 420 52.34375 L 208.5625 52.34375 C 201.5625 52.34375 194.765625 49.882812 189.375 45.402344 L 165.234375 25.273438 C 157.148438 18.535156 146.921875 14.84375 136.433594 14.84375 L 30 14.84375 C 13.449219 14.84375 0 28.292969 0 44.84375 L 0 187.34375 C 0 191.476562 3.371094 194.84375 7.5 194.84375 C 11.632812 194.84375 15 191.476562 15 187.34375 L 15 149.84375 C 15 141.582031 21.738281 134.84375 30 134.84375 L 420 134.84375 C 428.261719 134.84375 435 141.582031 435 149.84375 L 435 389.84375 C 435 398.105469 428.261719 404.84375 420 404.84375 L 30 404.84375 C 21.738281 404.84375 15 398.105469 15 389.84375 L 15 217.34375 C 15 213.214844 11.632812 209.84375 7.5 209.84375 C 3.371094 209.84375 0 213.214844 0 217.34375 L 0 389.84375 C 0 406.398438 13.449219 419.84375 30 419.84375 L 420 419.84375 C 436.550781 419.84375 450 406.398438 450 389.84375 L 450 82.34375 C 450 65.792969 436.550781 52.34375 420 52.34375 "/></g></g></svg>